<?xml version="1.0" encoding="UTF-8" standalone="no"?>
<!-- Created with Inkscape (http://www.inkscape.org/) -->

<svg
   version="1.1"
   id="svg1"
   width="412.08026"
   height="173.52734"
   viewBox="0 0 412.08026 173.52734"
   xmlns="http://www.w3.org/2000/svg"
   xmlns:svg="http://www.w3.org/2000/svg">
  <defs
     id="defs1" />
  <g
     id="g1"
     transform="translate(-202.98437,-170.62891)">
    <path
       id="path1"
       d="M 0,85.04042 V 54.42592 M -15.71558,51.59401 V 33.44638 M 0,30.61449 V 0"
       style="fill:none;stroke:#000000;stroke-width:0.3985;stroke-linecap:butt;stroke-linejoin:miter;stroke-miterlimit:10;stroke-dasharray:none;stroke-opacity:1"
       transform="matrix(1.3333333,0,0,-1.3333333,258.49733,311.932)" />
    <path
       id="path2"
       d="m 11.90572,42.5202 c 0,6.57541 -5.33031,11.90572 -11.90572,11.90572 -6.57541,0 -11.90572,-5.33031 -11.90572,-11.90572 0,-6.57542 5.33031,-11.90571 11.90572,-11.90571 6.57541,0 11.90572,5.33029 11.90572,11.90571 z"
       style="fill:none;stroke:#000000;stroke-width:0.797;stroke-linecap:butt;stroke-linejoin:miter;stroke-miterlimit:10;stroke-dasharray:none;stroke-opacity:1"
       transform="matrix(1.3333333,0,0,-1.3333333,258.49733,311.932)" />
    <path
       id="path3"
       d="M 0,54.42592 V 30.61449"
       style="fill:none;stroke:#000000;stroke-width:0.797;stroke-linecap:butt;stroke-linejoin:miter;stroke-miterlimit:10;stroke-dasharray:none;stroke-opacity:1"
       transform="matrix(1.3333333,0,0,-1.3333333,258.49733,311.932)" />
    <path
       id="path4"
       d="m -15.71558,37.66292 h -1.98425 l 1.98425,-4.21654 1.98426,4.21654 z"
       style="fill:#000000;fill-opacity:1;fill-rule:nonzero;stroke:#000000;stroke-width:0.3985;stroke-linecap:butt;stroke-linejoin:miter;stroke-miterlimit:10;stroke-dasharray:none;stroke-opacity:1"
       transform="matrix(1.3333333,0,0,-1.3333333,258.49733,311.932)" />
    <g
       id="g4"
       aria-label="u&#10;z&#10;(t)"
       transform="matrix(1.3333333,0,0,1.3333333,202.59333,258.56)">
      <path
         id="path5"
         d="m 3.4925,-0.56355469 c 0.1054688,0.41015625 0.4570313,0.66796875 0.8789063,0.66796875 0.3515625,0 0.5742187,-0.22265625 0.7382812,-0.5390625 0.1757813,-0.36328125 0.3046875,-0.97265626 0.3046875,-0.99609376 0,-0.09375 -0.09375,-0.09375 -0.1289062,-0.09375 -0.09375,0 -0.1054688,0.035156 -0.140625,0.1757813 -0.1289063,0.56249996 -0.328125,1.24218746 -0.7382813,1.24218746 -0.2109375,0 -0.3164062,-0.12890625 -0.3164062,-0.45703125 0,-0.22265625 0.1289062,-0.69140621 0.1992187,-1.04296871 l 0.28125,-1.078125 c 0.035156,-0.140625 0.1289063,-0.5273438 0.1757813,-0.6679688 0.046875,-0.234375 0.140625,-0.609375 0.140625,-0.6679687 0,-0.1875 -0.140625,-0.2695313 -0.28125,-0.2695313 -0.058594,0 -0.3164063,0 -0.3867188,0.3398438 -0.1992187,0.7265625 -0.6328125,2.4726562 -0.75,2.99999996 -0.011719,0.046875 -0.4101562,0.84375 -1.1367187,0.84375 -0.515625,0 -0.6210938,-0.45703125 -0.6210938,-0.8203125 0,-0.56249996 0.28125,-1.34765626 0.5390625,-2.02734376 0.1171875,-0.3046875 0.1757813,-0.4453125 0.1757813,-0.6328125 0,-0.4453125 -0.328125,-0.8203125 -0.8203125,-0.8203125 -0.9492188,0 -1.31250005,1.453125 -1.31250005,1.5351563 0,0.1054687 0.09375,0.1054687 0.1171875,0.1054687 0.09375,0 0.10546875,-0.023437 0.15234375,-0.1875 0.2578125,-0.8671875 0.6328125,-1.2304687 1.0078125,-1.2304687 0.09375,0 0.2578125,0.011719 0.2578125,0.328125 0,0.234375 -0.1171875,0.5273437 -0.1757812,0.6796875 -0.3632813,0.984375 -0.5742188,1.6054687 -0.5742188,2.0859375 0,0.94921871 0.6796875,1.19531246 1.21875,1.19531246 0.65625,0 1.0195313,-0.4453125 1.1953125,-0.66796875 z m 0,0"
         style="fill:#000000;fill-opacity:1;fill-rule:nonzero;stroke:none" />
      <path
         id="path6"
         d="m 6.8762891,0.88371094 c 0.1757812,-0.1875 0.3046875,-0.31640625 0.9023437,-0.796875 0.140625,-0.1171875 0.6679688,-0.52734375 0.8671875,-0.7265625 0.421875,-0.42187504 0.6914063,-0.77343754 0.6914063,-0.85546874 0,-0.082031 -0.09375,-0.082031 -0.1171875,-0.082031 -0.058594,0 -0.082031,0.011719 -0.1171875,0.070312 -0.2226563,0.3164063 -0.3632813,0.421875 -0.5273438,0.421875 -0.09375,0 -0.1992187,-0.011719 -0.3984375,-0.2109375 -0.2460937,-0.234375 -0.3984375,-0.28125 -0.5507812,-0.28125 -0.5625,0 -0.9375,0.59765629 -0.9375,0.80859379 0,0.0703125 0.070312,0.0820313 0.1171875,0.0820313 0.082031,0 0.09375,-0.0117188 0.1289062,-0.09375 0.1054688,-0.24609369 0.4921875,-0.25781249 0.5976563,-0.25781249 0.1640625,0 0.3515625,0.0468749 0.4453125,0.0585938 0.3867187,0.09375 0.4335937,0.09375 0.609375,0.09375 -0.1875,0.1875 -0.3046875,0.3046875 -0.9726563,0.84375 C 7.0755078,0.37980469 6.8880078,0.55558594 6.7473828,0.69621094 6.3372266,1.1063672 6.1262891,1.4110547 6.1262891,1.4813672 c 0,0.082031 0.09375,0.082031 0.1171875,0.082031 0.070312,0 0.09375,-0.011719 0.1289062,-0.070312 0.1875,-0.2695312 0.3984375,-0.421875 0.6328125,-0.421875 0.082031,0 0.1875,0 0.375,0.1757813 0.2226563,0.2109375 0.3632813,0.3164062 0.5859375,0.3164062 0.7382813,0 1.2070313,-0.84374996 1.2070313,-1.07812496 0,-0.0820313 -0.070312,-0.09375 -0.1171875,-0.09375 -0.082031,0 -0.09375,0.0351563 -0.1289063,0.1171875 C 8.7981641,0.84855469 8.3880078,1.0243359 8.0481641,1.0243359 c -0.1640625,0 -0.3398438,-0.0351562 -0.515625,-0.0820312 -0.3164063,-0.0703125 -0.375,-0.0703125 -0.4921875,-0.0703125 -0.023437,0 -0.1171875,0 -0.1640625,0.0117187 z m 0,0"
         style="fill:#000000;fill-opacity:1;fill-rule:nonzero;stroke:none" />
      <path
         id="path7"
         d="m 13.588203,2.3895703 c 0,-0.035156 0,-0.046875 -0.164062,-0.2226562 -1.242188,-1.25390629 -1.570313,-3.12890629 -1.570313,-4.6640625 0,-1.7226563 0.386719,-3.4570313 1.605469,-4.7109375 0.128906,-0.1171875 0.128906,-0.1289063 0.128906,-0.1640625 0,-0.070312 -0.03516,-0.1054688 -0.09375,-0.1054688 -0.105469,0 -0.996094,0.6796875 -1.582031,1.9453125 -0.515625,1.1015625 -0.632813,2.203125 -0.632813,3.0351563 0,0.7851562 0.117188,1.99218746 0.65625,3.11718746 0.597657,1.21875004 1.453125,1.87500004 1.558594,1.87500004 0.05859,0 0.09375,-0.035156 0.09375,-0.1054688 z m 0,0"
         style="fill:#000000;fill-opacity:1;fill-rule:nonzero;stroke:none" />
      <path
         id="path8"
         d="m 16.219063,-3.9854297 h 0.9375 c 0.199218,0 0.304687,0 0.304687,-0.1992187 0,-0.1054688 -0.105469,-0.1054688 -0.28125,-0.1054688 h -0.878906 c 0.363281,-1.4179687 0.410156,-1.6171875 0.410156,-1.6757812 0,-0.1757813 -0.117187,-0.2695313 -0.292969,-0.2695313 -0.02344,0 -0.304687,0.011719 -0.398437,0.3515625 l -0.386719,1.59375 h -0.9375 c -0.199219,0 -0.292969,0 -0.292969,0.1875 0,0.1171875 0.07031,0.1171875 0.269532,0.1171875 h 0.878906 c -0.714844,2.8242188 -0.75,3.00000001 -0.75,3.17578126 0,0.5390625 0.375,0.9140625 0.914062,0.9140625 1.007813,0 1.582032,-1.45312496 1.582032,-1.53515626 0,-0.09375 -0.08203,-0.09375 -0.117188,-0.09375 -0.09375,0 -0.105469,0.023437 -0.152344,0.140625 -0.433593,1.03125001 -0.960937,1.27734376 -1.300781,1.27734376 -0.199219,0 -0.304687,-0.12890625 -0.304687,-0.45703125 0,-0.24609375 0.02344,-0.31640625 0.05859,-0.48046871 z m 0,0"
         style="fill:#000000;fill-opacity:1;fill-rule:nonzero;stroke:none" />
      <path
         id="path9"
         d="m 20.64875,-2.4971484 c 0,-0.7734375 -0.117187,-1.9804688 -0.65625,-3.1054688 -0.597656,-1.21875 -1.464844,-1.875 -1.558594,-1.875 -0.05859,0 -0.105468,0.046875 -0.105468,0.1054688 0,0.035156 0,0.046875 0.199218,0.234375 0.972657,0.984375 1.535157,2.5664062 1.535157,4.640625 0,1.71093746 -0.363282,3.45703121 -1.59375,4.7226562 -0.140625,0.1171875 -0.140625,0.1289063 -0.140625,0.1640625 0,0.058594 0.04687,0.1054688 0.105468,0.1054688 0.09375,0 0.996094,-0.6796875 1.582032,-1.94531254 0.503906,-1.1015625 0.632812,-2.20312496 0.632812,-3.04687496 z m 0,0"
         style="fill:#000000;fill-opacity:1;fill-rule:nonzero;stroke:none" />
    </g>
    <path
       id="path10"
       d="M 0,67.99693 H 1.98425 L 0,72.21349 -1.98425,67.99693 Z"
       style="fill:#000000;fill-opacity:1;fill-rule:nonzero;stroke:#000000;stroke-width:0.3985;stroke-linecap:butt;stroke-linejoin:miter;stroke-miterlimit:10;stroke-dasharray:none;stroke-opacity:1"
       transform="matrix(1.3333333,0,0,-1.3333333,258.49733,311.932)" />
    <g
       id="g10"
       aria-label="i&#10;z&#10;(t)"
       transform="matrix(1.3333333,0,0,1.3333333,227.97867,222.276)">
      <path
         id="path11"
         d="m 2.8255703,-6.2216484 c 0,-0.1992188 -0.1289062,-0.3632813 -0.3632812,-0.3632813 -0.2695313,0 -0.5390625,0.2578125 -0.5390625,0.5273438 0,0.1875 0.140625,0.3632812 0.375,0.3632812 0.234375,0 0.5273437,-0.234375 0.5273437,-0.5273437 z m -0.75,3.7382812 c 0.1171875,-0.28125 0.1171875,-0.3046875 0.2226563,-0.5742187 0.070312,-0.1992188 0.1289062,-0.3398438 0.1289062,-0.5273438 0,-0.4453125 -0.328125,-0.8203125 -0.8203125,-0.8203125 -0.93749999,0 -1.31249999,1.453125 -1.31249999,1.5351563 0,0.1054687 0.09375,0.1054687 0.1171875,0.1054687 0.09375,0 0.10546875,-0.023437 0.15234375,-0.1875 0.26953125,-0.9375 0.66796874,-1.2304687 1.00781254,-1.2304687 0.082031,0 0.2578125,0 0.2578125,0.3164062 0,0.2109375 -0.070312,0.421875 -0.1171875,0.515625 -0.082031,0.2578125 -0.5273438,1.4179688 -0.6796875,1.8515625 -0.10546879,0.2578125 -0.23437504,0.58593751 -0.23437504,0.79687501 0,0.46875 0.33984374,0.80859375 0.82031254,0.80859375 0.9375,0 1.3007812,-1.44140626 1.3007812,-1.53515626 0,-0.09375 -0.09375,-0.09375 -0.1171875,-0.09375 -0.1054687,0 -0.1054687,0.023437 -0.1523437,0.1757813 -0.1757813,0.63281246 -0.5039063,1.24218746 -1.0195313,1.24218746 -0.1640625,0 -0.234375,-0.10546875 -0.234375,-0.328125 0,-0.2578125 0.058594,-0.3984375 0.2929688,-0.99609376 z m 0,0"
         style="fill:#000000;fill-opacity:1;fill-rule:nonzero;stroke:none" />
      <path
         id="path12"
         d="m 4.6038906,0.88577344 c 0.1757813,-0.1875 0.3046875,-0.31640625 0.9023438,-0.796875 0.140625,-0.1171875 0.6679687,-0.52734375 0.8671875,-0.7265625 0.421875,-0.42187504 0.6914062,-0.77343754 0.6914062,-0.85546874 0,-0.082031 -0.09375,-0.082031 -0.1171875,-0.082031 -0.058594,0 -0.082031,0.011719 -0.1171875,0.070312 -0.2226562,0.3164063 -0.3632812,0.421875 -0.5273437,0.421875 -0.09375,0 -0.1992188,-0.011719 -0.3984375,-0.2109375 -0.2460938,-0.234375 -0.3984375,-0.28125 -0.5507813,-0.28125 -0.5625,0 -0.9375,0.59765629 -0.9375,0.80859379 0,0.0703125 0.070312,0.0820313 0.1171875,0.0820313 0.082031,0 0.09375,-0.0117188 0.1289063,-0.09375 0.1054687,-0.24609369 0.4921875,-0.25781249 0.5976562,-0.25781249 0.1640625,0 0.3515625,0.0468749 0.4453125,0.0585937 0.3867188,0.09375 0.4335938,0.09375 0.609375,0.09375 -0.1875,0.1875 -0.3046875,0.3046875 -0.9726562,0.84375 C 4.8031094,0.38186719 4.6156094,0.55764844 4.4749844,0.69827344 4.0648281,1.1084297 3.8538906,1.4131172 3.8538906,1.4834297 c 0,0.082031 0.09375,0.082031 0.1171875,0.082031 0.070312,0 0.09375,-0.011719 0.1289063,-0.070312 0.1875,-0.2695312 0.3984375,-0.421875 0.6328125,-0.421875 0.082031,0 0.1875,0 0.375,0.1757813 0.2226562,0.2109375 0.3632812,0.3164062 0.5859375,0.3164062 0.7382812,0 1.2070312,-0.84374996 1.2070312,-1.07812496 0,-0.0820313 -0.070312,-0.09375 -0.1171875,-0.09375 -0.082031,0 -0.09375,0.0351563 -0.1289062,0.1171875 C 6.5257656,0.85061719 6.1156094,1.0263984 5.7757656,1.0263984 c -0.1640625,0 -0.3398437,-0.0351562 -0.515625,-0.0820312 -0.3164062,-0.0703125 -0.375,-0.0703125 -0.4921875,-0.0703125 -0.023437,0 -0.1171875,0 -0.1640625,0.0117187 z m 0,0"
         style="fill:#000000;fill-opacity:1;fill-rule:nonzero;stroke:none" />
      <path
         id="path13"
         d="m 11.315805,2.3916328 c 0,-0.035156 0,-0.046875 -0.164063,-0.2226562 -1.2421873,-1.25390629 -1.5703123,-3.12890629 -1.5703123,-4.6640625 0,-1.7226563 0.3867187,-3.4570313 1.6054683,-4.7109375 0.128907,-0.1171875 0.128907,-0.1289063 0.128907,-0.1640625 0,-0.070312 -0.03516,-0.1054688 -0.09375,-0.1054688 -0.105469,0 -0.996094,0.6796875 -1.5820316,1.9453125 -0.515625,1.1015625 -0.6328125,2.203125 -0.6328125,3.0351563 0,0.7851562 0.1171875,1.99218746 0.65625,3.11718746 0.5976561,1.21875004 1.4531251,1.87500004 1.5585941,1.87500004 0.05859,0 0.09375,-0.035156 0.09375,-0.1054688 z m 0,0"
         style="fill:#000000;fill-opacity:1;fill-rule:nonzero;stroke:none" />
      <path
         id="path14"
         d="m 13.946664,-3.9833672 h 0.9375 c 0.199219,0 0.304688,0 0.304688,-0.1992187 0,-0.1054688 -0.105469,-0.1054688 -0.28125,-0.1054688 h -0.878907 c 0.363282,-1.4179687 0.410157,-1.6171875 0.410157,-1.6757812 0,-0.1757813 -0.117188,-0.2695313 -0.292969,-0.2695313 -0.02344,0 -0.304688,0.011719 -0.398438,0.3515625 l -0.386718,1.59375 h -0.9375 c -0.199219,0 -0.292969,0 -0.292969,0.1875 0,0.1171875 0.07031,0.1171875 0.269531,0.1171875 h 0.878906 c -0.714843,2.8242188 -0.75,3.00000001 -0.75,3.17578126 0,0.5390625 0.375,0.9140625 0.914063,0.9140625 1.007812,0 1.582031,-1.45312496 1.582031,-1.53515626 0,-0.09375 -0.08203,-0.09375 -0.117187,-0.09375 -0.09375,0 -0.105469,0.023437 -0.152344,0.140625 -0.433594,1.03125001 -0.960938,1.27734376 -1.300781,1.27734376 -0.199219,0 -0.304688,-0.12890625 -0.304688,-0.45703125 0,-0.24609375 0.02344,-0.31640625 0.05859,-0.48046871 z m 0,0"
         style="fill:#000000;fill-opacity:1;fill-rule:nonzero;stroke:none" />
      <path
         id="path15"
         d="m 18.376352,-2.4950859 c 0,-0.7734375 -0.117188,-1.9804688 -0.65625,-3.1054688 -0.597657,-1.21875 -1.464844,-1.875 -1.558594,-1.875 -0.05859,0 -0.105469,0.046875 -0.105469,0.1054688 0,0.035156 0,0.046875 0.199219,0.234375 0.972656,0.984375 1.535156,2.5664062 1.535156,4.640625 0,1.71093746 -0.363281,3.45703121 -1.59375,4.7226562 -0.140625,0.1171875 -0.140625,0.1289063 -0.140625,0.1640625 0,0.058594 0.04687,0.1054688 0.105469,0.1054688 0.09375,0 0.996094,-0.6796875 1.582031,-1.94531254 0.503906,-1.1015625 0.632813,-2.20312496 0.632813,-3.04687496 z m 0,0"
         style="fill:#000000;fill-opacity:1;fill-rule:nonzero;stroke:none" />
    </g>
    <path
       id="path16"
       d="m 0,0 h 42.5202 m 0,0 h 42.52022"
       style="fill:none;stroke:#000000;stroke-width:0.3985;stroke-linecap:butt;stroke-linejoin:miter;stroke-miterlimit:10;stroke-dasharray:none;stroke-opacity:1"
       transform="matrix(1.3333333,0,0,-1.3333333,258.49733,311.932)" />
    <path
       id="path17"
       d="m 85.04042,0 -2e-5,35.57515 m 0,13.89011 2e-5,35.57516"
       style="fill:none;stroke:#000000;stroke-width:0.3985;stroke-linecap:butt;stroke-linejoin:miter;stroke-miterlimit:10;stroke-dasharray:none;stroke-opacity:1"
       transform="matrix(1.3333333,0,0,-1.3333333,258.49733,311.932)" />
    <path
       id="path18"
       d="M 85.0404,35.57515 78.09535,46.68726"
       style="fill:none;stroke:#000000;stroke-width:0.797;stroke-linecap:butt;stroke-linejoin:miter;stroke-miterlimit:10;stroke-dasharray:none;stroke-opacity:1"
       transform="matrix(1.3333333,0,0,-1.3333333,258.49733,311.932)" />
    <path
       id="path19"
       d="m 76.70636,35.57515 c 0,2.97711 1.58878,5.72896 4.16704,7.2175 1.22134,0.70512 2.5857,1.08025 3.96339,1.11395"
       style="fill:none;stroke:#000000;stroke-width:0.797;stroke-linecap:butt;stroke-linejoin:bevel;stroke-miterlimit:10;stroke-dasharray:none;stroke-opacity:1"
       transform="matrix(1.3333333,0,0,-1.3333333,258.49733,311.932)" />
    <path
       id="path20"
       d="m 3.1083,0 c -1.29513,0.25902 -3.62635,0.77707 -5.1805,1.94269 1.29513,-1.42464 1.29513,-2.46074 0,-3.88538 C -0.51805,-0.77707 1.81317,-0.25902 3.1083,0 Z"
       style="fill:#000000;fill-opacity:1;fill-rule:nonzero;stroke:none"
       transform="matrix(1.33232,0.05056,0.05056,-1.33232,371.54388,253.89936)" />
    <path
       id="path21"
       d="m 198.42766,85.04042 -2e-5,-26.64602 m 0,-31.74839 L 198.42766,0"
       style="fill:none;stroke:#000000;stroke-width:0.3985;stroke-linecap:butt;stroke-linejoin:miter;stroke-miterlimit:10;stroke-dasharray:none;stroke-opacity:1"
       transform="matrix(1.3333333,0,0,-1.3333333,258.49733,311.932)" />
    <path
       id="path22"
       d="M 192.4748,26.64601 V 58.3944 h 11.9057 V 26.64601 Z"
       style="fill:none;stroke:#000000;stroke-width:0.797;stroke-linecap:butt;stroke-linejoin:miter;stroke-miterlimit:10;stroke-dasharray:none;stroke-opacity:1"
       transform="matrix(1.3333333,0,0,-1.3333333,258.49733,311.932)" />
    <path
       id="path23"
       d="m 3.7393359,-6.1179453 c 0.058594,-0.234375 0.082031,-0.3398438 0.28125,-0.3632813 0.082031,-0.011719 0.3984375,-0.011719 0.5976563,-0.011719 0.7148437,0 1.8164062,0 1.8164062,0.984375 0,0.3398437 -0.1523437,1.0195312 -0.5507812,1.4179687 -0.2578125,0.2578125 -0.7851563,0.5742188 -1.6757813,0.5742188 H 3.0948047 Z m 1.4296875,2.7304687 c 1.0078125,-0.2226562 2.1914063,-0.9140625 2.1914063,-1.921875 0,-0.8554687 -0.890625,-1.5 -2.203125,-1.5 H 2.3213672 c -0.1992188,0 -0.2929688,0 -0.2929688,0.1992188 0,0.1171875 0.09375,0.1171875 0.28125,0.1171875 0.023437,0 0.2109375,0 0.3867188,0.011719 0.1757812,0.023437 0.2578125,0.035156 0.2578125,0.1640625 0,0.035156 0,0.070312 -0.035156,0.1875 l -1.3359375,5.35546879 c -0.09375,0.38671875 -0.1171875,0.46875 -0.90234371,0.46875 -0.17578125,0 -0.26953125,0 -0.26953125,0.19921875 0,0.1054687475 0.1171875,0.1054687475 0.140625,0.1054687475 0.28125,0 0.97265626,-0.0351562475 1.25390626,-0.0351562475 0.28125,0 0.984375,0.0351562475 1.265625,0.0351562475 0.082031,0 0.1992187,0 0.1992187,-0.1992187475 0,-0.10546875 -0.09375,-0.10546875 -0.28125,-0.10546875 -0.3632812,0 -0.6445312,0 -0.6445312,-0.1875 0,-0.0585937 0.011719,-0.10546875 0.023437,-0.1640625 l 0.65625,-2.63671879 h 1.1953125 c 0.9023437,0 1.078125,0.5507813 1.078125,0.9023438 0,0.1523437 -0.082031,0.4570312 -0.140625,0.6914062 -0.070312,0.2695313 -0.1523438,0.6445313 -0.1523438,0.84375004 0,1.078125 1.1953125,1.078125 1.3242188,1.078125 0.84375,0 1.1953125,-1.0078125 1.1953125,-1.1484375 0,-0.11718754 -0.1171875,-0.11718754 -0.1171875,-0.11718754 -0.09375,0 -0.1171875,0.0703125 -0.1289063,0.14062504 -0.2578125,0.73828125 -0.6796875,0.9023437475 -0.9140625,0.9023437475 -0.328125,0 -0.3984375,-0.2226562475 -0.3984375,-0.6093749975 0,-0.3046875 0.058594,-0.82031249 0.1054688,-1.13671879 0.011719,-0.140625 0.035156,-0.328125 0.035156,-0.46875 0,-0.7617187 -0.6679687,-1.078125 -0.9374996,-1.1718753 z m 0,0"
       style="fill:#000000;fill-opacity:1;fill-rule:nonzero;stroke:none"
       aria-label="R"
       transform="matrix(1.3333333,0,0,1.3333333,533.94,258.09867)" />
    <path
       id="path24"
       d="m 141.73404,85.04042 -2e-5,-38.55174 M 125.46278,64.52437 V 20.516 M 141.73402,38.55173 141.73404,0"
       style="fill:none;stroke:#000000;stroke-width:0.3985;stroke-linecap:butt;stroke-linejoin:miter;stroke-miterlimit:10;stroke-dasharray:none;stroke-opacity:1"
       transform="matrix(1.3333333,0,0,-1.3333333,258.49733,311.932)" />
    <path
       id="path25"
       d="m 153.63974,46.48868 h -23.81143 m 23.81143,-7.93695 h -23.81143"
       style="fill:none;stroke:#000000;stroke-width:0.797;stroke-linecap:butt;stroke-linejoin:miter;stroke-miterlimit:10;stroke-dasharray:none;stroke-opacity:1"
       transform="matrix(1.3333333,0,0,-1.3333333,258.49733,311.932)" />
    <path
       id="path26"
       d="m 7.5689062,-6.9265391 c 0,-0.023437 -0.023437,-0.09375 -0.1054687,-0.09375 -0.035156,0 -0.046875,0.011719 -0.1523438,0.1171875 l -0.703125,0.7617188 c -0.082031,-0.140625 -0.5390625,-0.8789063 -1.6523437,-0.8789063 -2.2148438,0 -4.453125,2.203125 -4.453125,4.5117188 0,1.64062499 1.171875,2.73046874 2.6953125,2.73046874 0.8671875,0 1.6171875,-0.3984375 2.1445312,-0.85546875 0.9375,-0.82031249 1.1015625,-1.72265629 1.1015625,-1.75781249 0,-0.1054688 -0.1054687,-0.1054688 -0.1171875,-0.1054688 -0.058594,0 -0.1171875,0.023437 -0.1289062,0.1054688 -0.09375,0.2929687 -0.3164063,0.9960937 -1.0078125,1.57031249 -0.6914063,0.5625 -1.3125,0.7265625 -1.8398438,0.7265625 -0.890625,0 -1.9453125,-0.515625 -1.9453125,-2.06249999 0,-0.5742188 0.2109375,-2.1914063 1.2070313,-3.3515625 0.609375,-0.703125 1.5351562,-1.2070313 2.4257812,-1.2070313 1.0195313,0 1.6054688,0.7734375 1.6054688,1.921875 0,0.3984375 -0.035156,0.4101563 -0.035156,0.5039063 0,0.1054687 0.1171875,0.1054687 0.1523438,0.1054687 0.1289062,0 0.1289062,-0.023437 0.1757812,-0.1992187 z m 0,0"
       style="fill:#000000;fill-opacity:1;fill-rule:nonzero;stroke:none"
       aria-label="C"
       transform="matrix(1.3333333,0,0,1.3333333,467.08,258.09867)" />
    <path
       id="path27"
       d="m 125.46278,24.73254 h -1.98425 l 1.98425,-4.21654 1.98426,4.21654 z"
       style="fill:#000000;fill-opacity:1;fill-rule:nonzero;stroke:#000000;stroke-width:0.3985;stroke-linecap:butt;stroke-linejoin:miter;stroke-miterlimit:10;stroke-dasharray:none;stroke-opacity:1"
       transform="matrix(1.3333333,0,0,-1.3333333,258.49733,311.932)" />
    <g
       id="g27"
       aria-label="u&#10;c&#10;(t)"
       transform="matrix(1.3333333,0,0,1.3333333,394.712,258.56)">
      <path
         id="path28"
         d="m 3.4913906,-0.56355469 c 0.1054688,0.41015625 0.4570313,0.66796875 0.8789063,0.66796875 0.3515625,0 0.5742187,-0.22265625 0.7382812,-0.5390625 0.1757813,-0.36328125 0.3046875,-0.97265626 0.3046875,-0.99609376 0,-0.09375 -0.09375,-0.09375 -0.1289062,-0.09375 -0.09375,0 -0.1054688,0.035156 -0.140625,0.1757813 -0.1289063,0.56249996 -0.328125,1.24218746 -0.7382813,1.24218746 -0.2109375,0 -0.3164062,-0.12890625 -0.3164062,-0.45703125 0,-0.22265625 0.1289062,-0.69140621 0.1992187,-1.04296871 l 0.28125,-1.078125 c 0.035156,-0.140625 0.1289063,-0.5273438 0.1757813,-0.6679688 0.046875,-0.234375 0.140625,-0.609375 0.140625,-0.6679687 0,-0.1875 -0.140625,-0.2695313 -0.28125,-0.2695313 -0.058594,0 -0.3164063,0 -0.3867188,0.3398438 -0.1992187,0.7265625 -0.6328125,2.4726562 -0.75,2.99999996 -0.011719,0.046875 -0.4101562,0.84375 -1.1367187,0.84375 -0.515625,0 -0.6210938,-0.45703125 -0.6210938,-0.8203125 0,-0.56249996 0.28125,-1.34765626 0.5390625,-2.02734376 0.1171875,-0.3046875 0.1757813,-0.4453125 0.1757813,-0.6328125 0,-0.4453125 -0.328125,-0.8203125 -0.8203125,-0.8203125 -0.94921877,0 -1.31250002,1.453125 -1.31250002,1.5351563 0,0.1054687 0.09375,0.1054687 0.1171875,0.1054687 0.09375,0 0.10546875,-0.023437 0.15234375,-0.1875 0.2578125,-0.8671875 0.63281247,-1.2304687 1.00781247,-1.2304687 0.09375,0 0.2578125,0.011719 0.2578125,0.328125 0,0.234375 -0.1171875,0.5273437 -0.1757812,0.6796875 -0.3632813,0.984375 -0.5742188,1.6054687 -0.5742188,2.0859375 0,0.94921871 0.6796875,1.19531246 1.21875,1.19531246 0.65625,0 1.0195313,-0.4453125 1.1953125,-0.66796875 z m 0,0"
         style="fill:#000000;fill-opacity:1;fill-rule:nonzero;stroke:none" />
      <path
         id="path29"
         d="m 8.7618984,-1.1787891 c -0.2578125,0.046875 -0.3632812,0.23437504 -0.3632812,0.38671879 0,0.1875 0.1523437,0.2578125 0.2695312,0.2578125 0.1640625,0 0.3984375,-0.10546875 0.3984375,-0.4453125 0,-0.46874999 -0.5390625,-0.59765629 -0.9140625,-0.59765629 -1.0429687,0 -2.015625,0.96093754 -2.015625,1.92187504 0,0.609375 0.421875,1.21874996 1.2890625,1.21874996 1.1835938,0 1.734375,-0.69140621 1.734375,-0.78515621 0,-0.046875 -0.070312,-0.1171875 -0.1289062,-0.1171875 -0.035156,0 -0.046875,0.0117188 -0.1054688,0.0703125 C 8.3751797,1.3641797 7.5665859,1.3641797 7.4376797,1.3641797 c -0.5039063,0 -0.7265625,-0.3398438 -0.7265625,-0.77343751 0,-0.19921875 0.1054687,-0.9609375 0.46875,-1.44140625 0.2578125,-0.33984374 0.6210937,-0.53906254 0.9726562,-0.53906254 0.09375,0 0.4335938,0.011719 0.609375,0.2109375 z m 0,0"
         style="fill:#000000;fill-opacity:1;fill-rule:nonzero;stroke:none" />
      <path
         id="path30"
         d="m 13.053891,2.3895703 c 0,-0.035156 0,-0.046875 -0.164063,-0.2226562 -1.242187,-1.25390629 -1.570312,-3.12890629 -1.570312,-4.6640625 0,-1.7226563 0.386718,-3.4570313 1.605468,-4.7109375 0.128907,-0.1171875 0.128907,-0.1289063 0.128907,-0.1640625 0,-0.070312 -0.03516,-0.1054688 -0.09375,-0.1054688 -0.105469,0 -0.996094,0.6796875 -1.582032,1.9453125 -0.515625,1.1015625 -0.632812,2.203125 -0.632812,3.0351563 0,0.7851562 0.117187,1.99218746 0.65625,3.11718746 0.597656,1.21875004 1.453125,1.87500004 1.558594,1.87500004 0.05859,0 0.09375,-0.035156 0.09375,-0.1054688 z m 0,0"
         style="fill:#000000;fill-opacity:1;fill-rule:nonzero;stroke:none" />
      <path
         id="path31"
         d="m 15.68768,-3.9854297 h 0.9375 c 0.199218,0 0.304687,0 0.304687,-0.1992187 0,-0.1054688 -0.105469,-0.1054688 -0.28125,-0.1054688 h -0.878906 c 0.363281,-1.4179687 0.410156,-1.6171875 0.410156,-1.6757812 0,-0.1757813 -0.117187,-0.2695313 -0.292969,-0.2695313 -0.02344,0 -0.304687,0.011719 -0.398437,0.3515625 l -0.386719,1.59375 h -0.9375 c -0.199219,0 -0.292969,0 -0.292969,0.1875 0,0.1171875 0.07031,0.1171875 0.269532,0.1171875 h 0.878906 c -0.714844,2.8242188 -0.75,3.00000001 -0.75,3.17578126 0,0.5390625 0.375,0.9140625 0.914062,0.9140625 1.007813,0 1.582032,-1.45312496 1.582032,-1.53515626 0,-0.09375 -0.08203,-0.09375 -0.117188,-0.09375 -0.09375,0 -0.105469,0.023437 -0.152344,0.140625 -0.433593,1.03125001 -0.960937,1.27734376 -1.300781,1.27734376 -0.199219,0 -0.304687,-0.12890625 -0.304687,-0.45703125 0,-0.24609375 0.02344,-0.31640625 0.05859,-0.48046871 z m 0,0"
         style="fill:#000000;fill-opacity:1;fill-rule:nonzero;stroke:none" />
      <path
         id="path32"
         d="m 20.117367,-2.4971484 c 0,-0.7734375 -0.117187,-1.9804688 -0.65625,-3.1054688 -0.597656,-1.21875 -1.464844,-1.875 -1.558594,-1.875 -0.05859,0 -0.105468,0.046875 -0.105468,0.1054688 0,0.035156 0,0.046875 0.199218,0.234375 0.972657,0.984375 1.535157,2.5664062 1.535157,4.640625 0,1.71093746 -0.363282,3.45703121 -1.59375,4.7226562 -0.140625,0.1171875 -0.140625,0.1289063 -0.140625,0.1640625 0,0.058594 0.04687,0.1054688 0.105468,0.1054688 0.09375,0 0.996094,-0.6796875 1.582032,-1.94531254 0.503906,-1.1015625 0.632812,-2.20312496 0.632812,-3.04687496 z m 0,0"
         style="fill:#000000;fill-opacity:1;fill-rule:nonzero;stroke:none" />
    </g>
    <path
       id="path33"
       d="m 85.04042,85.04042 20.40984,-2e-5 m 15.87391,0 20.40987,2e-5"
       style="fill:none;stroke:#000000;stroke-width:0.3985;stroke-linecap:butt;stroke-linejoin:miter;stroke-miterlimit:10;stroke-dasharray:none;stroke-opacity:1"
       transform="matrix(1.3333333,0,0,-1.3333333,258.49733,311.932)" />
    <path
       id="path34"
       d="m 121.32417,85.0404 -15.87391,9.92135 V 75.11906 Z"
       style="fill:none;stroke:#000000;stroke-width:0.797;stroke-linecap:butt;stroke-linejoin:miter;stroke-miterlimit:10;stroke-dasharray:none;stroke-opacity:1"
       transform="matrix(1.3333333,0,0,-1.3333333,258.49733,311.932)" />
    <path
       id="path35"
       d="M 121.32417,75.11906 V 94.96175"
       style="fill:none;stroke:#000000;stroke-width:0.797;stroke-linecap:butt;stroke-linejoin:miter;stroke-miterlimit:10;stroke-dasharray:none;stroke-opacity:1"
       transform="matrix(1.3333333,0,0,-1.3333333,258.49733,311.932)" />
    <path
       id="path36"
       d="m 1.5831016,-0.77216406 c -0.09375,0.38671875 -0.1171875,0.46875 -0.90234379,0.46875 -0.17578125,0 -0.28125,0 -0.28125,0.1875 0,0.1171875 0.09375,0.1171875 0.28125,0.1171875 H 3.9737266 c 2.0742187,0 4.03125,-2.09765624 4.03125,-4.28906254 0,-1.3945312 -0.84375,-2.5195312 -2.3320313,-2.5195312 H 2.3213828 c -0.1875,0 -0.2929687,0 -0.2929687,0.1992187 0,0.1171875 0.082031,0.1171875 0.28125,0.1171875 0.1289062,0 0.3164062,0.011719 0.4335937,0.011719 0.1523438,0.023437 0.2109375,0.058594 0.2109375,0.1640625 0,0.035156 0,0.070312 -0.035156,0.1875 z m 2.15625,-5.34375004 c 0.082031,-0.3515625 0.1054687,-0.375 0.5390625,-0.375 h 1.0664062 c 0.9726563,0 1.7929688,0.5273438 1.7929688,1.8398438 0,0.4921875 -0.1992188,2.1210937 -1.0429688,3.2226562 -0.28125,0.3632813 -1.078125,1.12500004 -2.296875,1.12500004 h -1.125 c -0.140625,0 -0.1640625,0 -0.2226562,-0.0117188 -0.09375,-0.0117188 -0.1289063,-0.0234375 -0.1289063,-0.10546875 0,-0.0234375 0,-0.046875 0.046875,-0.22265625 z m 0,0"
       style="fill:#000000;fill-opacity:1;fill-rule:nonzero;stroke:none"
       aria-label="D"
       transform="matrix(1.3333333,0,0,1.3333333,403.99467,179.70533)" />
    <path
       id="path37"
       d="m 0,85.04042 26.64601,-2e-5 m 31.74839,0 26.64602,2e-5"
       style="fill:none;stroke:#000000;stroke-width:0.3985;stroke-linecap:butt;stroke-linejoin:miter;stroke-miterlimit:10;stroke-dasharray:none;stroke-opacity:1"
       transform="matrix(1.3333333,0,0,-1.3333333,258.49733,311.932)" />
    <path
       id="path38"
       d="m 26.2475,84.88101 c 0,3.28755 1.82136,5.95256 4.06817,5.95256 2.24681,0 4.06816,-2.66501 4.06816,-5.95256 0,3.28755 1.82137,5.95256 4.06818,5.95256 2.24681,0 4.06818,-2.66501 4.06818,-5.95256 0,3.28755 1.82136,5.95256 4.06816,5.95256 2.24681,0 4.06817,-2.66501 4.06817,-5.95256 0,3.28755 1.82137,5.95256 4.06818,5.95256 2.24681,0 4.06816,-2.66501 4.06816,-5.95256"
       style="fill:none;stroke:#000000;stroke-width:0.797;stroke-linecap:butt;stroke-linejoin:bevel;stroke-miterlimit:10;stroke-dasharray:none;stroke-opacity:1"
       transform="matrix(1.3333333,0,0,-1.3333333,258.49733,311.932)" />
    <path
       id="path39"
       d="m 3.7274688,-6.0248594 c 0.09375,-0.3632812 0.1171875,-0.46875 1.0546875,-0.46875 0.3046875,0 0.375,0 0.375,-0.1875 0,-0.1289062 -0.1054688,-0.1289062 -0.1523438,-0.1289062 -0.328125,0 -1.1484375,0.035156 -1.4765625,0.035156 -0.3046875,0 -1.03125,-0.035156 -1.3242187,-0.035156 -0.070312,0 -0.1875,0 -0.1875,0.1992187 0,0.1171875 0.082031,0.1171875 0.28125,0.1171875 0.011719,0 0.1992187,0 0.375,0.011719 0.1757812,0.023437 0.2695312,0.035156 0.2695312,0.1640625 0,0.035156 -0.011719,0.070312 -0.046875,0.1875 L 1.5595,-0.77485938 c -0.09375,0.38671875 -0.1171875,0.46875 -0.90234375,0.46875 -0.1640625,0 -0.26953125,0 -0.26953125,0.19921875 0,0.10546875 0.09375,0.10546875 0.26953125,0.10546875 H 5.2743438 c 0.234375,0 0.2460937,0 0.3046875,-0.1640625 L 6.3641875,-2.3217344 c 0.046875,-0.1054687 0.046875,-0.1289062 0.046875,-0.140625 0,-0.035156 -0.035156,-0.1054687 -0.1289062,-0.1054687 -0.082031,0 -0.09375,0.046875 -0.1640625,0.2109375 C 5.77825,-1.4428281 5.3446563,-0.30610938 3.622,-0.30610938 H 2.6845 c -0.140625,0 -0.1640625,0 -0.2226562,-0.0117188 -0.1054688,-0.0117188 -0.1289063,-0.0234375 -0.1289063,-0.10546875 0,-0.0234375 0,-0.046875 0.046875,-0.22265625 z m 0,0"
       style="fill:#000000;fill-opacity:1;fill-rule:nonzero;stroke:none"
       aria-label="L"
       transform="matrix(1.3333333,0,0,1.3333333,310.67067,185.52533)" />
    <path
       id="path40"
       d="m 255.12128,85.04042 -2e-5,-30.6145 m 0,-23.81143 L 255.12128,0"
       style="fill:none;stroke:#000000;stroke-width:0.3985;stroke-linecap:butt;stroke-linejoin:miter;stroke-miterlimit:10;stroke-dasharray:none;stroke-opacity:1"
       transform="matrix(1.3333333,0,0,-1.3333333,258.49733,311.932)" />
    <path
       id="path41"
       d="m 267.02698,42.5202 c 0,6.57541 -5.33029,11.90572 -11.90572,11.90572 -6.57541,0 -11.90571,-5.33031 -11.90571,-11.90572 0,-6.57542 5.3303,-11.90571 11.90571,-11.90571 6.57543,0 11.90572,5.33029 11.90572,11.90571 z m 0,0 h -23.81143"
       style="fill:none;stroke:#000000;stroke-width:0.797;stroke-linecap:butt;stroke-linejoin:miter;stroke-miterlimit:10;stroke-dasharray:none;stroke-opacity:1"
       transform="matrix(1.3333333,0,0,-1.3333333,258.49733,311.932)" />
    <path
       id="path42"
       d="m 255.12126,17.04344 h -1.98425 l 1.98425,-4.21654 1.98425,4.21654 z"
       style="fill:#000000;fill-opacity:1;fill-rule:nonzero;stroke:#000000;stroke-width:0.3985;stroke-linecap:butt;stroke-linejoin:miter;stroke-miterlimit:10;stroke-dasharray:none;stroke-opacity:1"
       transform="matrix(1.3333333,0,0,-1.3333333,258.49733,311.932)" />
    <g
       id="g42"
       aria-label="i&#10;load&#10;(t)"
       transform="matrix(1.3333333,0,0,1.3333333,553.644,294.844)">
      <path
         id="path43"
         d="m 2.8246172,-6.2228438 c 0,-0.1992187 -0.1289063,-0.3632812 -0.3632813,-0.3632812 -0.2695312,0 -0.5390625,0.2578125 -0.5390625,0.5273437 0,0.1875 0.140625,0.3632813 0.375,0.3632813 0.234375,0 0.5273438,-0.234375 0.5273438,-0.5273438 z m -0.75,3.7382813 C 2.1918047,-2.7658125 2.1918047,-2.78925 2.2972734,-3.0587813 2.3675859,-3.258 2.4261797,-3.398625 2.4261797,-3.586125 c 0,-0.4453125 -0.328125,-0.8203125 -0.8203125,-0.8203125 -0.93750001,0 -1.31250001,1.453125 -1.31250001,1.5351562 0,0.1054688 0.09375,0.1054688 0.1171875,0.1054688 0.09375,0 0.10546875,-0.023437 0.15234375,-0.1875 0.26953125,-0.9375 0.66796876,-1.2304688 1.00781246,-1.2304688 0.082031,0 0.2578125,0 0.2578125,0.3164063 0,0.2109375 -0.070312,0.421875 -0.1171875,0.515625 -0.082031,0.2578125 -0.5273437,1.4179687 -0.6796875,1.8515625 -0.10546871,0.2578125 -0.23437496,0.5859375 -0.23437496,0.796875 0,0.46875 0.33984376,0.80859375 0.82031246,0.80859375 0.9375,0 1.3007813,-1.44140625 1.3007813,-1.53515625 0,-0.09375 -0.09375,-0.09375 -0.1171875,-0.09375 -0.1054688,0 -0.1054688,0.023437 -0.1523438,0.1757812 -0.1757812,0.63281255 -0.5039062,1.24218755 -1.0195312,1.24218755 -0.1640625,0 -0.234375,-0.10546875 -0.234375,-0.328125 0,-0.2578125 0.058594,-0.3984375 0.2929687,-0.99609375 z m 0,0"
         style="fill:#000000;fill-opacity:1;fill-rule:nonzero;stroke:none" />
      <path
         id="path44"
         d="m 5.4027422,-3.1349531 c 0,-0.011719 0.023437,-0.1054688 0.023437,-0.1171875 0,-0.035156 -0.023437,-0.09375 -0.1054688,-0.09375 -0.140625,0 -0.7265625,0.058594 -0.9023437,0.070312 -0.046875,0.011719 -0.140625,0.011719 -0.140625,0.1640625 0,0.09375 0.09375,0.09375 0.1757812,0.09375 0.328125,0 0.328125,0.046875 0.328125,0.1054687 0,0.046875 -0.011719,0.09375 -0.023437,0.1523438 L 3.8910234,0.68535937 c -0.023437,0.0703125 -0.023437,0.140625 -0.023437,0.2109375 0,0.45703123 0.3984375,0.66796873 0.7265625,0.66796873 0.1757813,0 0.375,-0.058594 0.5625,-0.375 0.140625,-0.25781248 0.2460938,-0.66796873 0.2460938,-0.69140623 0,-0.09375 -0.09375,-0.09375 -0.1171875,-0.09375 -0.09375,0 -0.1054688,0.046875 -0.140625,0.1640625 -0.082031,0.3515625 -0.2226563,0.79687503 -0.515625,0.79687503 -0.1875,0 -0.234375,-0.1757813 -0.234375,-0.3398438 0,-0.0703125 0.011719,-0.21093748 0.035156,-0.28124998 z m 4.2949219,2.77734372 c 0,-0.77343752 -0.5742188,-1.21875002 -1.265625,-1.21875002 -1.03125,0 -2.0039063,0.96093752 -2.0039063,1.92187502 0,0.69140628 0.5039063,1.21874998 1.265625,1.21874998 0.9960938,0 2.0039063,-0.92578123 2.0039063,-1.92187498 z M 7.7054766,1.3650469 c -0.3515625,0 -0.703125,-0.2226563 -0.703125,-0.77343753 0,-0.28125 0.140625,-0.9609375 0.4101562,-1.359375 0.2929688,-0.43359377 0.703125,-0.62109377 1.0195313,-0.62109377 0.375,0 0.6914062,0.2578125 0.6914062,0.77343752 0,0.17578125 -0.082031,0.85546875 -0.3867187,1.34765625 C 8.4671953,1.1423906 8.0570391,1.3650469 7.7054766,1.3650469 Z m 5.1621094,-2.53125 c -0.140625,-0.234375 -0.386719,-0.4101563 -0.714844,-0.4101563 -0.890625,0 -1.804687,0.97265627 -1.804687,1.98046877 0,0.67968753 0.457031,1.16015623 1.054687,1.16015623 0.375,0 0.714844,-0.2109375 0.996094,-0.4921875 0.128906,0.421875 0.527344,0.4921875 0.714844,0.4921875 0.246093,0 0.421875,-0.1523437 0.550781,-0.375 0.152344,-0.26953123 0.246094,-0.66796873 0.246094,-0.69140623 0,-0.09375 -0.09375,-0.09375 -0.117188,-0.09375 -0.09375,0 -0.105469,0.0351563 -0.152344,0.22265625 -0.08203,0.328125 -0.210937,0.73828128 -0.503906,0.73828128 -0.1875,0 -0.234375,-0.1523438 -0.234375,-0.3398438 0,-0.11718748 0.05859,-0.36328123 0.105469,-0.55078123 0.04687,-0.1875 0.117187,-0.46875 0.152344,-0.62109375 l 0.140625,-0.5390625 c 0.04687,-0.17578125 0.128906,-0.50390622 0.128906,-0.53906252 0,-0.1523437 -0.128906,-0.2226562 -0.246094,-0.2226562 -0.117187,0 -0.269531,0.082031 -0.316406,0.28125 z m -0.445313,1.79296872 c -0.04687,0.1875 -0.199218,0.328125 -0.351562,0.45703128 -0.07031,0.058594 -0.339844,0.28125 -0.644531,0.28125 -0.257813,0 -0.515625,-0.1757813 -0.515625,-0.66796878 0,-0.375 0.210937,-1.13671875 0.363281,-1.41796875 0.328125,-0.56249997 0.679687,-0.66796877 0.878906,-0.66796877 0.480469,0 0.621094,0.52734377 0.621094,0.60937502 0,0.0234375 -0.01172,0.0820313 -0.02344,0.09375 z m 5.809571,-3.76171872 c 0,-0.011719 0.02344,-0.1054688 0.02344,-0.1171875 0,-0.035156 -0.02344,-0.09375 -0.105469,-0.09375 -0.140625,0 -0.726562,0.058594 -0.902343,0.070312 -0.04687,0.011719 -0.152344,0.011719 -0.152344,0.1640625 0,0.09375 0.105469,0.09375 0.1875,0.09375 0.328125,0 0.328125,0.046875 0.328125,0.1054687 0,0.046875 -0.01172,0.09375 -0.02344,0.1523438 l -0.398437,1.59375 c -0.140625,-0.234375 -0.386719,-0.4101563 -0.714844,-0.4101563 -0.890625,0 -1.804687,0.97265627 -1.804687,1.98046877 0,0.67968753 0.457031,1.16015623 1.054687,1.16015623 0.375,0 0.714844,-0.2109375 0.996094,-0.4921875 0.128906,0.421875 0.527344,0.4921875 0.714844,0.4921875 0.246093,0 0.421875,-0.1523437 0.550781,-0.375 0.152344,-0.26953123 0.246094,-0.66796873 0.246094,-0.69140623 0,-0.09375 -0.09375,-0.09375 -0.117188,-0.09375 -0.09375,0 -0.105469,0.0351563 -0.152344,0.22265625 -0.08203,0.328125 -0.210937,0.73828128 -0.503906,0.73828128 -0.1875,0 -0.234375,-0.1523438 -0.234375,-0.3398438 0,-0.12890623 0.01172,-0.19921873 0.03516,-0.28124998 z m -1.488282,3.76171872 c -0.04687,0.1875 -0.199218,0.328125 -0.351562,0.45703128 -0.07031,0.058594 -0.339844,0.28125 -0.644531,0.28125 -0.257813,0 -0.515625,-0.1757813 -0.515625,-0.66796878 0,-0.375 0.210937,-1.13671875 0.363281,-1.41796875 0.328125,-0.56249997 0.679687,-0.66796877 0.878906,-0.66796877 0.480469,0 0.621094,0.52734377 0.621094,0.60937502 0,0.0234375 -0.01172,0.0820313 -0.02344,0.09375 z m 0,0"
         style="fill:#000000;fill-opacity:1;fill-rule:nonzero;stroke:none" />
      <path
         id="path45"
         d="m 22.183992,2.3904375 c 0,-0.035156 0,-0.046875 -0.164062,-0.2226563 -1.242188,-1.2539062 -1.570313,-3.1289062 -1.570313,-4.6640625 0,-1.7226562 0.386719,-3.4570312 1.605469,-4.7109375 0.128906,-0.1171875 0.128906,-0.1289062 0.128906,-0.1640625 0,-0.070312 -0.03516,-0.1054687 -0.09375,-0.1054687 -0.105469,0 -0.996094,0.6796875 -1.582031,1.9453125 -0.515625,1.1015625 -0.632813,2.203125 -0.632813,3.0351562 0,0.7851563 0.117188,1.99218755 0.65625,3.11718755 0.597657,1.21874995 1.453125,1.87499995 1.558594,1.87499995 0.05859,0 0.09375,-0.035156 0.09375,-0.1054687 z m 0,0"
         style="fill:#000000;fill-opacity:1;fill-rule:nonzero;stroke:none" />
      <path
         id="path46"
         d="m 24.817781,-3.9845625 h 0.9375 c 0.199219,0 0.304688,0 0.304688,-0.1992188 0,-0.1054687 -0.105469,-0.1054687 -0.28125,-0.1054687 h -0.878907 c 0.363282,-1.4179688 0.410157,-1.6171875 0.410157,-1.6757813 0,-0.1757812 -0.117188,-0.2695312 -0.292969,-0.2695312 -0.02344,0 -0.304688,0.011719 -0.398438,0.3515625 l -0.386718,1.59375 h -0.9375 c -0.199219,0 -0.292969,0 -0.292969,0.1875 0,0.1171875 0.07031,0.1171875 0.269531,0.1171875 h 0.878906 c -0.714843,2.8242187 -0.75,3 -0.75,3.17578125 0,0.5390625 0.375,0.9140625 0.914063,0.9140625 1.007812,0 1.582031,-1.45312505 1.582031,-1.53515625 0,-0.09375 -0.08203,-0.09375 -0.117187,-0.09375 -0.09375,0 -0.105469,0.023437 -0.152344,0.140625 -0.433594,1.03125 -0.960938,1.27734375 -1.300781,1.27734375 -0.199219,0 -0.304688,-0.12890625 -0.304688,-0.45703125 0,-0.24609375 0.02344,-0.31640625 0.05859,-0.4804688 z m 0,0"
         style="fill:#000000;fill-opacity:1;fill-rule:nonzero;stroke:none" />
      <path
         id="path47"
         d="m 29.247469,-2.4962813 c 0,-0.7734375 -0.117188,-1.9804687 -0.65625,-3.1054687 -0.597657,-1.21875 -1.464844,-1.875 -1.558594,-1.875 -0.05859,0 -0.105469,0.046875 -0.105469,0.1054687 0,0.035156 0,0.046875 0.199219,0.234375 0.972656,0.984375 1.535156,2.5664063 1.535156,4.640625 0,1.71093755 -0.363281,3.4570313 -1.59375,4.7226563 -0.140625,0.1171875 -0.140625,0.1289062 -0.140625,0.1640625 0,0.058594 0.04687,0.1054687 0.105469,0.1054687 0.09375,0 0.996094,-0.6796875 1.582031,-1.94531245 0.503906,-1.1015625 0.632813,-2.20312505 0.632813,-3.04687505 z m 0,0"
         style="fill:#000000;fill-opacity:1;fill-rule:nonzero;stroke:none" />
    </g>
    <path
       id="path48"
       d="m 141.73404,85.04042 28.3468,-2e-5 m 0,0 28.34682,2e-5 28.3468,-2e-5 m 0,0 28.34682,2e-5"
       style="fill:none;stroke:#000000;stroke-width:0.3985;stroke-linecap:butt;stroke-linejoin:miter;stroke-miterlimit:10;stroke-dasharray:none;stroke-opacity:1"
       transform="matrix(1.3333333,0,0,-1.3333333,258.49733,311.932)" />
    <path
       id="path49"
       d="m 85.04042,0 h 28.3468 m 0,0 h 28.34682 28.3468 m 0,0 h 28.34682 28.3468 m 0,0 h 28.34682"
       style="fill:none;stroke:#000000;stroke-width:0.3985;stroke-linecap:butt;stroke-linejoin:miter;stroke-miterlimit:10;stroke-dasharray:none;stroke-opacity:1"
       transform="matrix(1.3333333,0,0,-1.3333333,258.49733,311.932)" />
    <path
       id="path50"
       d="M 5.7998984,-6.7730313 H 0.32724219 v 0.3046875 h 0.234375 c 0.77343751,0 0.79687501,0.1171875 0.79687501,0.46875 v 5.22656255 c 0,0.3515625 -0.023437,0.46875 -0.79687501,0.46875 h -0.234375 V 4.0625e-4 C 0.67880469,-0.03475 1.4522422,-0.03475 1.8389609,-0.03475 c 0.4101563,0 1.3125,0 1.6757813,0.03515625 v -0.3046875 h -0.328125 c -0.9492188,0 -0.9492188,-0.12890625 -0.9492188,-0.48046875 v -2.4492188 h 0.8554688 c 0.9609375,0 1.0546875,0.3164063 1.0546875,1.1601563 H 4.4053672 V -4.7105313 H 4.1475547 c 0,0.8320313 -0.09375,1.1601563 -1.0546875,1.1601563 H 2.2373984 v -2.5195313 c 0,-0.328125 0.023437,-0.3984375 0.4921875,-0.3984375 h 1.1953125 c 1.4882813,0 1.7460938,0.5625 1.8984375,1.9335938 h 0.2578125 z m 2.4609375,2.3671875 -1.3945312,0.1171875 v 0.3046875 c 0.65625,0 0.7382812,0.058594 0.7382812,0.5507813 v 2.671875 c 0,0.45703125 -0.1054687,0.45703125 -0.7734375,0.45703125 V 4.0625e-4 C 7.1475547,-0.0113125 7.6866172,-0.03475 7.9327109,-0.03475 c 0.3398438,0 0.6914063,0.0234375 1.03125,0.03515625 v -0.3046875 c -0.65625,0 -0.703125,-0.0585938 -0.703125,-0.4453125 z m 0.046875,-1.734375 c 0,-0.3164062 -0.2460937,-0.5273437 -0.5273437,-0.5273437 -0.3164063,0 -0.5273438,0.2695312 -0.5273438,0.5273437 0,0.2695313 0.2109375,0.5273438 0.5273438,0.5273438 0.28125,0 0.5273437,-0.1992188 0.5273437,-0.5273438 z m 3.1787111,4.4296875 c -0.867188,0 -0.867188,-0.9960937 -0.867188,-1.2304687 0,-0.2695313 0.01172,-0.5859375 0.152344,-0.8320313 0.08203,-0.1171875 0.316406,-0.3984375 0.714844,-0.3984375 0.867187,0 0.867187,0.9960938 0.867187,1.21875 0,0.2695313 -0.01172,0.5976563 -0.164062,0.84375 -0.08203,0.1171875 -0.304688,0.3984375 -0.703125,0.3984375 z m -1.160156,0.3867188 c 0,-0.035156 0,-0.2695313 0.175781,-0.46875 0.386719,0.28125 0.796875,0.3046875 0.984375,0.3046875 0.925781,0 1.605469,-0.6796875 1.605469,-1.453125 0,-0.3632813 -0.152344,-0.7382813 -0.398438,-0.9609375 0.351563,-0.3398438 0.714844,-0.3867188 0.890625,-0.3867188 0.02344,0 0.07031,0 0.105469,0 -0.117188,0.046875 -0.164063,0.1523438 -0.164063,0.2695313 0,0.1757812 0.128907,0.2929687 0.292969,0.2929687 0.09375,0 0.28125,-0.070312 0.28125,-0.2929687 0,-0.1757813 -0.117187,-0.4921875 -0.503906,-0.4921875 -0.199219,0 -0.632813,0.058594 -1.054688,0.46875 -0.421875,-0.328125 -0.84375,-0.3632813 -1.054687,-0.3632813 -0.925781,0 -1.6171876,0.6914063 -1.6171876,1.453125 0,0.4453125 0.2226566,0.8203125 0.4687496,1.03125 -0.128906,0.1523438 -0.304687,0.4804688 -0.304687,0.8203125 0,0.3164063 0.128906,0.6914063 0.433594,0.89062505 C 9.8692344,-0.03475 9.5528281,0.387125 9.5528281,0.7855625 c 0,0.7148437 0.9843749,1.265625 2.2031249,1.265625 1.171875,0 2.203125,-0.5039063 2.203125,-1.2890625 0,-0.33984375 -0.140625,-0.85546875 -0.644531,-1.125 -0.527344,-0.28125 -1.101563,-0.28125 -1.710938,-0.28125 -0.246093,0 -0.679687,0 -0.75,-0.0117188 -0.316406,-0.046875 -0.527343,-0.3515625 -0.527343,-0.6679687 z m 1.441406,3.1523437 c -1.007813,0 -1.699219,-0.515625 -1.699219,-1.0429687 0,-0.45703125 0.375,-0.8203125 0.820313,-0.85546875 h 0.585937 c 0.855469,0 1.96875,0 1.96875,0.85546875 0,0.5390625 -0.703125,1.0429687 -1.675781,1.0429687 z m 6.375,-2.6132812 V 0.105875 L 19.584078,4.0625e-4 v -0.3046875 c -0.703125,0 -0.785156,-0.0703125 -0.785156,-0.5625 V -4.4058438 l -1.453125,0.1171875 v 0.3046875 c 0.691406,0 0.773437,0.070312 0.773437,0.5625 v 1.7695313 c 0,0.8671875 -0.480468,1.546875 -1.207031,1.546875 -0.832031,0 -0.878906,-0.46875 -0.878906,-0.9960938 v -3.3046875 l -1.464844,0.1171875 v 0.3046875 c 0.785156,0 0.785156,0.035156 0.785156,0.9140625 v 1.5 c 0,0.77343755 0,1.6757813 1.511719,1.6757813 0.550781,0 0.996094,-0.26953125 1.277344,-0.890625 z m 3.310547,-2.5195313 v -1.1015625 l -1.382813,0.1171875 v 0.3046875 c 0.691406,0 0.773438,0.070312 0.773438,0.5625 v 2.6601563 c 0,0.45703125 -0.105469,0.45703125 -0.773438,0.45703125 V 4.0625e-4 C 20.457125,-0.0113125 20.925875,-0.03475 21.207125,-0.03475 c 0.398437,0 0.867187,0 1.265625,0.03515625 v -0.3046875 h -0.210938 c -0.738281,0 -0.761718,-0.1171875 -0.761718,-0.46875 V -2.3081875 c 0,-0.984375 0.421875,-1.875 1.183593,-1.875 0.05859,0 0.08203,0 0.105469,0.011719 -0.03516,0.011719 -0.234375,0.1289063 -0.234375,0.3867188 0,0.28125 0.210938,0.4335937 0.433594,0.4335937 0.175781,0 0.421875,-0.1289062 0.421875,-0.4453125 0,-0.3164062 -0.304688,-0.609375 -0.726563,-0.609375 -0.738281,0 -1.089843,0.6679688 -1.230468,1.1015622 z m 3.351562,0.796875 c 0.05859,-1.4882812 0.902344,-1.734375 1.242188,-1.734375 1.019531,0 1.125,1.3476563 1.125,1.734375 z m -0.01172,0.2109375 h 2.789063 c 0.210937,0 0.246094,0 0.246094,-0.2109375 0,-0.984375 -0.539063,-1.9570312 -1.78125,-1.9570312 -1.160157,0 -2.074219,1.03125 -2.074219,2.2734375 0,1.3359375 1.042969,2.296875 2.191406,2.296875 1.21875,0 1.664063,-1.1015625 1.664063,-1.2890625 0,-0.1054688 -0.08203,-0.1171875 -0.128907,-0.1171875 -0.09375,0 -0.117187,0.058594 -0.128906,0.140625 -0.351562,1.01953125 -1.253906,1.01953125 -1.347656,1.01953125 -0.503906,0 -0.902344,-0.29296875 -1.125,-0.66796875 -0.304688,-0.4804688 -0.304688,-1.1367188 -0.304688,-1.4882813 z m 9.57129,-4.078125 c 0,-0.234375 0,-0.2578125 -0.234375,-0.2578125 -0.609375,0.6328125 -1.488282,0.6328125 -1.804688,0.6328125 v 0.3164063 c 0.199219,0 0.785156,0 1.300781,-0.2578125 v 5.15625 c 0,0.3515625 -0.03516,0.48046875 -0.925781,0.48046875 H 32.383883 V 4.0625e-4 C 32.735445,-0.03475 33.590914,-0.03475 33.989352,-0.03475 c 0.398437,0 1.265625,0 1.617187,0.03515625 v -0.3046875 h -0.316406 c -0.902344,0 -0.925781,-0.1171875 -0.925781,-0.48046875 z m 3.960937,2.6132813 c 0,-0.2929688 -0.234375,-0.5273438 -0.527344,-0.5273438 -0.28125,0 -0.527343,0.234375 -0.527343,0.5273438 0,0.28125 0.246093,0.5273437 0.527343,0.5273437 0.292969,0 0.527344,-0.2460937 0.527344,-0.5273437 z m 0,3.234375 c 0,-0.29296875 -0.234375,-0.5273438 -0.527344,-0.5273438 -0.28125,0 -0.527343,0.23437505 -0.527343,0.5273438 0,0.29296875 0.246093,0.52734375 0.527343,0.52734375 0.292969,0 0.527344,-0.234375 0.527344,-0.52734375 z m 7.505859,-3.1171875 v -2.4492188 c 0,-0.328125 0.01172,-0.3984375 0.480469,-0.3984375 h 1.242188 c 0.960937,0 1.3125,0.84375 1.3125,1.3710938 0,0.6328125 -0.492188,1.4765625 -1.59375,1.4765625 z m 2.34375,0.09375 c 0.972657,-0.1992188 1.652344,-0.8320313 1.652344,-1.5703125 0,-0.8671875 -0.914062,-1.6875 -2.203125,-1.6875 h -3.644531 v 0.3164062 h 0.234375 c 0.761719,0 0.785156,0.1054688 0.785156,0.46875 v 5.25000005 c 0,0.3515625 -0.02344,0.46875 -0.785156,0.46875 h -0.234375 v 0.3046875 h 3.902344 c 1.324218,0 2.214843,-0.890625 2.214843,-1.82812505 0,-0.8671875 -0.808593,-1.6054687 -1.921875,-1.7226562 z m -0.609375,3.24609375 h -1.253906 c -0.46875,0 -0.480469,-0.0703125 -0.480469,-0.3984375 V -3.4214688 h 1.875 c 0.984375,0 1.394532,0.9257813 1.394532,1.59375 0,0.703125 -0.515625,1.52343755 -1.535157,1.52343755 z m 7.795899,-1.82812505 c 0,-1.2773437 -0.996094,-2.3320312 -2.191406,-2.3320312 -1.253907,0 -2.214844,1.0898437 -2.214844,2.3320312 0,1.28906255 1.03125,2.2382813 2.203125,2.2382813 1.207031,0 2.203125,-0.97265625 2.203125,-2.2382813 z m -2.191406,1.99218755 c -0.433594,0 -0.867188,-0.2109375 -1.136719,-0.66796875 -0.257813,-0.4335938 -0.257813,-1.0429688 -0.257813,-1.40625 0,-0.3867188 0,-0.9257813 0.246094,-1.359375 0.269531,-0.4570313 0.738281,-0.6679688 1.136719,-0.6679688 0.433594,0 0.867187,0.2226563 1.125,0.6445313 0.257812,0.4335937 0.257812,1.0078125 0.257812,1.3828125 0,0.3632812 0,0.9023437 -0.222656,1.3359375 -0.222656,0.4453125 -0.65625,0.73828125 -1.148437,0.73828125 z M 60.62021,-2.1324063 c 0,-1.2773437 -0.996094,-2.3320312 -2.191406,-2.3320312 -1.253907,0 -2.214844,1.0898437 -2.214844,2.3320312 0,1.28906255 1.03125,2.2382813 2.203125,2.2382813 1.207031,0 2.203125,-0.97265625 2.203125,-2.2382813 z m -2.191406,1.99218755 c -0.433594,0 -0.867188,-0.2109375 -1.136719,-0.66796875 -0.257813,-0.4335938 -0.257813,-1.0429688 -0.257813,-1.40625 0,-0.3867188 0,-0.9257813 0.246094,-1.359375 0.269531,-0.4570313 0.738281,-0.6679688 1.136719,-0.6679688 0.433594,0 0.867187,0.2226563 1.125,0.6445313 0.257812,0.4335937 0.257812,1.0078125 0.257812,1.3828125 0,0.3632812 0,0.9023437 -0.222656,1.3359375 -0.222656,0.4453125 -0.65625,0.73828125 -1.148437,0.73828125 z m 4.561523,-1.79296875 c 0.222656,0.035156 1.03125,0.1992187 1.03125,0.9140625 0,0.515625 -0.351562,0.9140625 -1.125,0.9140625 -0.832031,0 -1.195312,-0.57421875 -1.382812,-1.4179688 -0.03516,-0.1289062 -0.03516,-0.1757812 -0.140625,-0.1757812 -0.128907,0 -0.128907,0.070312 -0.128907,0.2578125 v 1.3125 c 0,0.1640625 0,0.234375 0.105469,0.234375 0.05859,0 0.07031,0 0.257813,-0.19921875 C 61.619234,-0.1050625 61.619234,-0.1285 61.806734,-0.316 c 0.433594,0.421875 0.878907,0.421875 1.089844,0.421875 1.148438,0 1.605469,-0.66796875 1.605469,-1.3828125 0,-0.5273438 -0.292969,-0.8203125 -0.421875,-0.9492188 -0.328125,-0.3164062 -0.714844,-0.3984375 -1.136719,-0.46875 -0.550781,-0.1171875 -1.21875,-0.2460937 -1.21875,-0.8203125 0,-0.3515625 0.257813,-0.7617187 1.113281,-0.7617187 1.101563,0 1.148438,0.9023437 1.171875,1.2070312 0,0.09375 0.09375,0.09375 0.117188,0.09375 0.128906,0 0.128906,-0.046875 0.128906,-0.2460937 v -0.9960938 c 0,-0.1757812 0,-0.2460937 -0.117187,-0.2460937 -0.04687,0 -0.07031,0 -0.199219,0.1171875 -0.02344,0.046875 -0.128906,0.1289062 -0.164063,0.1640625 -0.375,-0.28125 -0.785156,-0.28125 -0.9375,-0.28125 -1.21875,0 -1.59375,0.6679687 -1.59375,1.2304687 0,0.3398438 0.164063,0.6210938 0.433594,0.84375 0.316406,0.2578125 0.597656,0.3164063 1.3125,0.4570313 z m 3.577149,-2.0507813 h 1.429687 V -4.2886563 H 66.567477 V -6.1285 h -0.246094 c -0.01172,0.8203125 -0.316406,1.8867187 -1.289063,1.921875 v 0.2226562 h 0.84375 v 2.7539063 c 0,1.21875 0.925782,1.3359375 1.289063,1.3359375 0.703125,0 0.984375,-0.703125 0.984375,-1.3359375 V -1.8042813 H 67.903414 V -1.2535 c 0,0.73828125 -0.304687,1.11328125 -0.667969,1.11328125 -0.667968,0 -0.667968,-0.90234375 -0.667968,-1.07812505 z m 6.032226,0.5742188 c 0,2.0625 1.605469,3.6328125 3.457031,3.6328125 1.628907,0 2.601563,-1.3828125 2.601563,-2.5429688 0,-0.1054687 0,-0.1757812 -0.128906,-0.1757812 -0.105469,0 -0.105469,0.070312 -0.117188,0.1640625 -0.08203,1.4296875 -1.148437,2.23828125 -2.226562,2.23828125 -0.609375,0 -2.566407,-0.33984375 -2.566407,-3.30468755 0,-2.9765625 1.945313,-3.3164062 2.554688,-3.3164062 1.078125,0 1.96875,0.9023437 2.167969,2.3671875 0.02344,0.1289062 0.02344,0.1640625 0.164062,0.1640625 0.152344,0 0.152344,-0.035156 0.152344,-0.234375 V -6.78475 c 0,-0.1640625 0,-0.234375 -0.105469,-0.234375 -0.03516,0 -0.08203,0 -0.164062,0.1171875 l -0.492188,0.7382812 c -0.375,-0.3632812 -0.878906,-0.8554687 -1.839844,-0.8554687 -1.863281,0 -3.457031,1.5820312 -3.457031,3.609375 z m 8.390625,-0.9960938 -1.394531,0.1171875 v 0.3046875 c 0.65625,0 0.738281,0.058594 0.738281,0.5507813 v 2.671875 c 0,0.45703125 -0.105469,0.45703125 -0.773437,0.45703125 V 4.0625e-4 C 79.877047,-0.0113125 80.416109,-0.03475 80.662203,-0.03475 c 0.339844,0 0.691406,0.0234375 1.03125,0.03515625 v -0.3046875 c -0.65625,0 -0.703125,-0.0585938 -0.703125,-0.4453125 z m 0.04687,-1.734375 c 0,-0.3164062 -0.246094,-0.5273437 -0.527344,-0.5273437 -0.316406,0 -0.527343,0.2695312 -0.527343,0.5273437 0,0.2695313 0.210937,0.5273438 0.527343,0.5273438 0.28125,0 0.527344,-0.1992188 0.527344,-0.5273438 z m 2.625,2.8359375 v -1.1015625 l -1.382812,0.1171875 v 0.3046875 c 0.691406,0 0.773437,0.070312 0.773437,0.5625 v 2.6601563 c 0,0.45703125 -0.105469,0.45703125 -0.773437,0.45703125 V 4.0625e-4 C 82.666109,-0.0113125 83.134859,-0.03475 83.416109,-0.03475 c 0.398438,0 0.867188,0 1.265625,0.03515625 v -0.3046875 h -0.210937 c -0.738281,0 -0.761719,-0.1171875 -0.761719,-0.46875 V -2.3081875 c 0,-0.984375 0.421875,-1.875 1.183594,-1.875 0.05859,0 0.08203,0 0.105469,0.011719 -0.03516,0.011719 -0.234375,0.1289063 -0.234375,0.3867188 0,0.28125 0.210937,0.4335937 0.433593,0.4335937 0.175782,0 0.421875,-0.1289062 0.421875,-0.4453125 0,-0.3164062 -0.304687,-0.609375 -0.726562,-0.609375 -0.738281,0 -1.089844,0.6679688 -1.230469,1.1015625 z m 3.398438,1.1367188 c 0,-1.6289063 0.820312,-2.0507813 1.347656,-2.0507813 0.09375,0 0.714844,0.011719 1.066406,0.375 -0.410156,0.023437 -0.46875,0.328125 -0.46875,0.4570313 0,0.2578125 0.1875,0.4570312 0.457031,0.4570312 0.257813,0 0.457032,-0.1640625 0.457032,-0.46875 0,-0.6796875 -0.75,-1.0664062 -1.523438,-1.0664062 -1.242187,0 -2.15625,1.078125 -2.15625,2.3085937 0,1.2773438 0.984375,2.2617188 2.144531,2.2617188 1.335938,0 1.652344,-1.1953125 1.652344,-1.2890625 0,-0.1054688 -0.105469,-0.1054688 -0.128906,-0.1054688 -0.09375,0 -0.117188,0.046875 -0.128906,0.1054688 -0.292969,0.92578125 -0.9375,1.04296875 -1.3125,1.04296875 -0.527344,0 -1.40625,-0.421875 -1.40625,-2.02734375 z M 94.220797,-0.78475 V 0.105875 L 95.662203,4.0625e-4 v -0.3046875 c -0.703125,0 -0.785156,-0.0703125 -0.785156,-0.5625 V -4.4058438 l -1.453125,0.1171875 v 0.3046875 c 0.691406,0 0.773437,0.070312 0.773437,0.5625 v 1.7695313 c 0,0.8671875 -0.480468,1.546875 -1.207031,1.546875 -0.832031,0 -0.878906,-0.46875 -0.878906,-0.9960938 v -3.3046875 l -1.464844,0.1171875 v 0.3046875 c 0.785156,0 0.785156,0.035156 0.785156,0.9140625 v 1.5 c 0,0.77343755 0,1.6757813 1.511719,1.6757813 0.550781,0 0.996094,-0.26953125 1.277344,-0.890625 z m 3.401367,-3.6210938 -1.394531,0.1171875 v 0.3046875 c 0.65625,0 0.738281,0.058594 0.738281,0.5507813 v 2.671875 c 0,0.45703125 -0.105469,0.45703125 -0.773437,0.45703125 V 4.0625e-4 C 96.508883,-0.0113125 97.047945,-0.03475 97.294039,-0.03475 c 0.339844,0 0.691406,0.0234375 1.03125,0.03515625 v -0.3046875 c -0.65625,0 -0.703125,-0.0585938 -0.703125,-0.4453125 z m 0.04687,-1.734375 c 0,-0.3164062 -0.246094,-0.5273437 -0.527344,-0.5273437 -0.316406,0 -0.527343,0.2695312 -0.527343,0.5273437 0,0.2695313 0.210937,0.5273438 0.527343,0.5273438 0.28125,0 0.527344,-0.1992188 0.527344,-0.5273438 z m 2.686516,2.15625 h 1.42969 v -0.3046875 h -1.42969 V -6.1285 h -0.24608 c -0.0117,0.8203125 -0.316413,1.8867187 -1.289069,1.921875 v 0.2226562 h 0.84375 v 2.7539063 c 0,1.21875 0.925779,1.3359375 1.289069,1.3359375 0.70312,0 0.98437,-0.703125 0.98437,-1.3359375 V -1.8042813 H 101.6915 V -1.2535 c 0,0.73828125 -0.30469,1.11328125 -0.66797,1.11328125 -0.66797,0 -0.66797,-0.90234375 -0.66797,-1.07812505 z m 0,0"
       style="fill:#000000;fill-opacity:1;fill-rule:nonzero;stroke:none"
       aria-label="Figure1:BoostCircuit"
       transform="matrix(1.3333333,0,0,1.3333333,339.16133,341.42133)" />
  </g>
</svg>
